<svg xmlns="http://www.w3.org/2000/svg" width="838" height="304" viewBox="0 0 838 304" version="1.1"><path d="M 281 47.951 C 281 58.374, 281.491 69.286, 282.090 72.201 C 282.690 75.115, 284.908 81.100, 287.020 85.500 C 289.409 90.478, 292.680 95.314, 295.680 98.303 C 298.331 100.944, 302.457 104.416, 304.848 106.018 C 307.240 107.619, 311.740 109.861, 314.848 110.999 C 317.957 112.137, 321.063 113.264, 321.750 113.503 C 322.704 113.834, 323 119.742, 323 138.469 L 323 163 339.500 163 L 356 163 356 138.158 L 356 113.317 360.250 112.046 C 362.587 111.347, 366.747 109.637, 369.494 108.247 C 372.241 106.857, 377.467 102.739, 381.109 99.098 C 385.050 95.157, 389.004 89.954, 390.875 86.248 C 392.604 82.823, 394.683 77.203, 395.494 73.760 C 396.524 69.392, 396.975 61.681, 396.985 48.250 L 397 29 380.500 29 L 364 29 363.990 47.750 C 363.981 65.315, 363.832 66.818, 361.633 71.541 C 360.342 74.313, 357.883 77.762, 356.168 79.205 C 354.454 80.648, 351.371 82.382, 349.319 83.060 C 347.266 83.737, 343.092 84.333, 340.043 84.384 C 336.994 84.435, 332.866 84.134, 330.868 83.715 C 328.870 83.296, 325.350 81.587, 323.044 79.917 C 320.331 77.951, 318.001 75.051, 316.436 71.690 C 314.153 66.786, 314.019 65.468, 314.010 47.750 L 314 29 297.500 29 L 281 29 281 47.951 M 420 96 L 420 163 436.486 163 L 452.972 163 453.236 131.965 L 453.500 100.930 470.541 123.715 C 479.914 136.247, 490.264 150.198, 493.541 154.717 L 499.500 162.934 519.250 162.967 C 530.112 162.985, 539 162.655, 539 162.233 C 539 161.811, 531.125 151.021, 521.500 138.255 C 511.875 125.489, 504 114.667, 504 114.206 C 504 113.745, 506.902 111.517, 510.449 109.256 C 514.715 106.536, 518.434 103.057, 521.438 98.977 C 524.099 95.362, 526.811 90.115, 527.989 86.299 C 529.095 82.719, 529.995 77.024, 529.988 73.645 C 529.982 70.265, 529.359 65.183, 528.605 62.350 C 527.851 59.518, 525.982 54.900, 524.452 52.089 C 522.922 49.278, 519.345 44.779, 516.503 42.091 C 513.660 39.403, 509.018 36.029, 506.186 34.594 C 503.355 33.160, 498.217 31.321, 494.769 30.508 C 489.885 29.356, 480.933 29.026, 454.250 29.015 L 420 29 420 96 M 558 96 L 558 163 608 163 L 658 163 658 148 L 658 133 624.500 133 L 591 133 591 81 L 591 29 574.500 29 L 558 29 558 96 M 696.073 92.764 C 682.088 127.819, 670.044 157.963, 669.309 159.750 L 667.973 163 685.874 163 L 703.775 163 708.518 149.500 L 713.262 136 737.931 136 L 762.601 136 767.408 149.500 L 772.216 163 790.215 163 C 804.212 163, 808.104 162.722, 807.719 161.750 C 807.447 161.063, 795.386 130.913, 780.918 94.750 L 754.611 29 738.056 29.014 L 721.500 29.027 696.073 92.764 M 102.342 49.479 C 98.404 50.194, 92.779 51.556, 89.842 52.505 C 86.904 53.455, 81.065 55.928, 76.866 58 C 72.667 60.073, 66.463 63.648, 63.079 65.946 C 59.696 68.244, 54.611 72.181, 51.780 74.695 C 48.949 77.210, 44.658 81.569, 42.245 84.383 C 39.831 87.198, 35.911 92.425, 33.533 96 C 31.156 99.575, 28.521 104.163, 27.679 106.196 L 26.147 109.892 31.824 113.052 C 34.946 114.790, 40.763 118.687, 44.750 121.712 C 48.737 124.737, 52 127.297, 52 127.401 C 52 127.505, 49.716 130.045, 46.924 133.045 C 44.132 136.045, 40.013 141.272, 37.771 144.660 C 35.529 148.048, 33.178 150.622, 32.547 150.380 C 31.916 150.137, 28.497 146.529, 24.950 142.361 L 18.500 134.783 17.666 140.141 C 17.207 143.089, 17.076 150.450, 17.375 156.500 C 17.712 163.325, 18.883 171.295, 20.460 177.500 C 21.858 183, 24.789 191.231, 26.974 195.790 C 29.159 200.350, 32.643 206.650, 34.717 209.790 C 36.791 212.931, 42.054 219.228, 46.414 223.784 C 50.773 228.340, 57.076 234.017, 60.420 236.401 C 63.764 238.784, 70.213 242.599, 74.750 244.878 C 79.288 247.158, 83 248.625, 83 248.139 C 83 247.654, 85.206 243.936, 87.903 239.878 C 90.599 235.820, 94.588 230.485, 96.766 228.023 L 100.727 223.545 102.781 227.523 C 103.911 229.710, 106.785 233.345, 109.167 235.600 C 111.550 237.854, 115.213 240.965, 117.306 242.511 L 121.113 245.323 115.806 250.761 L 110.500 256.198 125.500 255.697 C 136.098 255.343, 142.982 254.571, 148.956 253.064 C 153.608 251.891, 161.571 248.962, 166.654 246.554 C 171.737 244.146, 178.506 240.452, 181.698 238.345 C 184.889 236.237, 191.173 230.998, 195.662 226.703 C 200.151 222.408, 206.055 215.655, 208.782 211.697 C 211.510 207.739, 214.955 202.093, 216.438 199.151 C 217.921 196.208, 218.992 193.696, 218.817 193.567 C 218.643 193.439, 214.450 190.736, 209.500 187.561 C 204.550 184.386, 199.547 180.913, 198.381 179.843 L 196.262 177.898 201.958 172.199 C 205.090 169.064, 209.411 163.850, 211.560 160.611 L 215.467 154.722 221.145 160.992 L 226.823 167.262 227.550 161.447 C 227.950 158.248, 227.991 151.280, 227.643 145.962 C 227.294 140.644, 225.913 131.972, 224.573 126.690 C 223.234 121.409, 220.341 113.254, 218.144 108.567 C 215.948 103.880, 211.831 96.690, 208.996 92.589 C 206.162 88.488, 199.937 81.368, 195.164 76.768 C 190.392 72.167, 182.683 66.062, 178.035 63.201 C 173.387 60.340, 169.115 58.004, 168.542 58.009 C 167.969 58.014, 165.834 60.601, 163.799 63.759 C 161.763 66.916, 157.768 72.112, 154.921 75.304 L 149.744 81.108 148.004 78.247 C 147.047 76.674, 143.842 73.242, 140.882 70.622 C 137.922 68.001, 133.816 64.877, 131.758 63.679 C 129.699 62.480, 128.012 61.200, 128.008 60.834 C 128.003 60.468, 130.716 57.710, 134.037 54.705 C 138.729 50.459, 139.713 49.104, 138.455 48.621 C 137.565 48.279, 130.686 48.041, 123.168 48.090 C 115.651 48.140, 106.279 48.765, 102.342 49.479 M 453 76 L 453 92 470.750 91.998 C 485.673 91.997, 489.046 91.718, 491.929 90.248 C 493.815 89.287, 496.290 87.230, 497.429 85.677 C 499.048 83.470, 499.500 81.356, 499.500 76 C 499.500 70.670, 499.048 68.542, 497.468 66.425 C 496.350 64.928, 493.882 62.870, 491.983 61.851 C 488.995 60.249, 486.146 60, 470.766 60 L 453 60 453 76 M 113.667 64.667 C 113.300 65.033, 113 65.709, 113 66.168 C 113 66.628, 115.269 68.633, 118.042 70.626 C 120.816 72.618, 122.851 74.482, 122.565 74.768 C 122.279 75.054, 119.237 73.443, 115.804 71.187 C 110.001 67.373, 109.438 67.199, 107.782 68.698 C 106.802 69.584, 106 70.936, 106 71.700 C 106 72.465, 107.013 74.096, 108.250 75.325 C 109.487 76.554, 111.598 78.323, 112.940 79.257 C 114.281 80.190, 115.090 81.244, 114.736 81.598 C 114.382 81.952, 112.384 80.902, 110.296 79.265 C 108.208 77.629, 105.471 75.749, 104.212 75.089 C 102.954 74.429, 101.090 74.154, 100.070 74.478 C 99.050 74.801, 97.965 76.026, 97.658 77.199 C 97.223 78.863, 98.713 81.001, 104.429 86.916 C 108.459 91.087, 112.487 95.940, 113.379 97.700 C 114.270 99.461, 115 102.241, 115 103.879 C 115 105.517, 114.361 107.496, 113.580 108.278 C 112.798 109.059, 109 110.714, 105.138 111.956 C 101.277 113.197, 97.484 114.953, 96.711 115.857 C 95.937 116.760, 95.030 118.274, 94.694 119.221 C 94.359 120.168, 94.714 121.571, 95.483 122.340 C 96.680 123.537, 97.643 123.533, 102.190 122.307 C 106.072 121.261, 110.330 121.046, 118.020 121.507 C 124.577 121.901, 131.110 121.691, 135.363 120.950 C 141.757 119.837, 142.368 119.896, 145.053 121.881 C 146.629 123.046, 148.162 124, 148.460 124 C 148.757 124, 149.900 123.100, 151 122 C 152.140 120.860, 154.333 120, 156.100 120 C 158.277 120, 160.188 120.988, 162.520 123.320 C 164.707 125.507, 166.415 128.663, 167.525 132.570 C 168.453 135.831, 169.787 139.107, 170.490 139.848 C 171.558 140.976, 172.483 140.873, 176.134 139.221 C 178.535 138.135, 182.180 135.492, 184.234 133.347 L 187.968 129.449 180.380 123.505 C 176.206 120.236, 169.103 113.497, 164.595 108.531 C 160.088 103.564, 155.017 97.700, 153.329 95.500 C 151.640 93.300, 148.880 88.760, 147.196 85.412 C 145.304 81.649, 141.972 77.347, 138.471 74.148 C 135.356 71.301, 130.839 67.818, 128.432 66.407 C 126.025 64.997, 123.256 64, 122.278 64.192 C 120.969 64.449, 121.818 65.435, 125.500 67.932 C 128.250 69.798, 130.688 71.476, 130.917 71.662 C 131.146 71.848, 131.137 72.196, 130.897 72.436 C 130.658 72.676, 127.359 70.876, 123.567 68.436 C 119.775 65.996, 116.146 64, 115.503 64 C 114.860 64, 114.033 64.300, 113.667 64.667 M 730.805 86.727 C 727.128 97.027, 724.256 105.590, 724.423 105.756 C 724.589 105.922, 730.810 105.933, 738.247 105.779 L 751.769 105.500 745.205 86.750 C 741.595 76.438, 738.382 68, 738.065 68 C 737.748 68, 734.481 76.427, 730.805 86.727 M 97.085 96.503 C 94.800 99.530, 88.927 105.887, 84.034 110.631 C 79.141 115.375, 72.519 121.024, 69.319 123.184 C 66.118 125.345, 60.920 128.440, 57.767 130.062 C 53.750 132.129, 50.360 135.029, 46.439 139.756 C 43.361 143.465, 40.176 147.768, 39.361 149.318 C 38.546 150.867, 38.018 153.085, 38.189 154.245 C 38.440 155.947, 39.241 155.237, 42.323 150.584 C 44.425 147.409, 46.380 145.047, 46.668 145.334 C 46.955 145.621, 45.122 149.053, 42.595 152.959 C 40.068 156.866, 38 160.723, 38 161.531 C 38 162.339, 38.853 163, 39.896 163 C 41.084 163, 43.026 161.077, 45.096 157.851 C 46.913 155.018, 48.562 153.185, 48.759 153.777 C 48.956 154.369, 47.476 157.325, 45.470 160.347 C 43.464 163.368, 41.980 166.664, 42.172 167.670 C 42.373 168.725, 43.569 169.648, 44.996 169.850 C 46.924 170.123, 48.409 169.129, 51.715 165.350 C 54.049 162.683, 55.968 160.981, 55.979 161.569 C 55.991 162.158, 54.200 165.051, 52 168 C 49.800 170.949, 48 173.760, 48 174.246 C 48 174.733, 48.466 176.002, 49.035 177.066 C 49.605 178.130, 50.810 179, 51.713 179 C 52.617 179, 56.827 175.623, 61.069 171.495 C 65.311 167.367, 70.391 163.317, 72.359 162.495 C 74.326 161.673, 77.043 161, 78.396 161 C 79.750 161, 81.515 161.658, 82.320 162.463 C 83.124 163.267, 84.735 167.063, 85.900 170.897 C 87.327 175.596, 88.874 178.542, 90.644 179.934 C 92.088 181.070, 93.862 182, 94.585 182 C 95.309 182, 96.298 181.290, 96.784 180.422 C 97.328 179.449, 97.140 176.861, 96.294 173.672 C 95.311 169.968, 95.103 165.520, 95.562 158 C 95.959 151.490, 95.762 145.098, 95.044 141.179 C 93.985 135.399, 94.062 134.560, 95.943 131.372 C 97.074 129.454, 98 127.686, 98 127.443 C 98 127.199, 97.170 127, 96.155 127 C 95.140 127, 93.565 126.177, 92.655 125.171 C 91.745 124.165, 91 121.725, 91 119.748 C 91 117.070, 91.782 115.372, 94.069 113.085 C 95.985 111.168, 99.272 109.424, 102.819 108.439 C 105.944 107.572, 109.120 106.661, 109.878 106.414 C 110.868 106.091, 111.089 104.936, 110.663 102.310 C 110.282 99.965, 108.731 97.285, 106.332 94.828 C 104.276 92.723, 102.289 91, 101.917 91 C 101.545 91, 99.371 93.476, 97.085 96.503 M 153.366 124.488 C 153.052 125.307, 153.353 128.301, 154.034 131.143 C 154.859 134.581, 155.051 139.481, 154.607 145.795 C 154.196 151.632, 154.400 158.286, 155.135 163.092 C 156.317 170.812, 156.301 170.945, 153.677 174.701 C 152.218 176.790, 150.327 179.454, 149.476 180.621 C 147.943 182.721, 147.966 182.731, 151.865 181.691 C 155.109 180.825, 156.255 180.937, 158.385 182.333 C 159.806 183.264, 161.261 185.192, 161.619 186.618 C 162.012 188.182, 161.647 190.517, 160.701 192.502 C 159.575 194.861, 157.574 196.530, 153.628 198.396 C 150.601 199.828, 147.282 201, 146.253 201 C 145.224 201, 143.562 201.600, 142.559 202.333 C 140.969 203.496, 140.884 204.118, 141.897 207.186 C 142.535 209.122, 144.117 211.701, 145.412 212.917 L 147.766 215.129 153.753 207.802 C 157.046 203.773, 163.314 197.106, 167.684 192.988 C 172.053 188.870, 178.802 183.374, 182.681 180.776 C 186.560 178.178, 191.031 175.563, 192.617 174.966 C 194.203 174.369, 197.230 172.220, 199.344 170.190 C 201.458 168.161, 205.101 163.800, 207.440 160.500 C 209.778 157.200, 211.987 153.672, 212.349 152.660 C 212.711 151.648, 212.729 150.370, 212.389 149.820 C 212.049 149.271, 210.024 151.449, 207.889 154.660 C 205.753 157.872, 204.006 159.825, 204.006 159 C 204.006 158.175, 205.804 154.800, 208 151.500 C 210.196 148.200, 211.995 144.713, 211.997 143.750 C 211.999 142.742, 211.258 142.008, 210.250 142.018 C 209.261 142.028, 207.057 144.243, 205.179 147.114 C 203.352 149.906, 201.603 151.937, 201.292 151.625 C 200.981 151.314, 202.642 148.120, 204.983 144.526 C 208.495 139.136, 209.022 137.731, 207.997 136.497 C 207.314 135.673, 205.706 135, 204.423 135 C 202.838 135, 201 136.430, 198.680 139.468 C 196.804 141.925, 195.007 143.674, 194.687 143.354 C 194.367 143.034, 195.882 140.368, 198.053 137.429 C 200.224 134.490, 202 131.256, 202 130.243 C 202 129.229, 201.460 127.860, 200.800 127.200 C 200.140 126.540, 198.950 126, 198.156 126 C 197.362 126, 192.995 129.569, 188.451 133.931 C 182.633 139.517, 178.946 142.236, 175.982 143.123 C 172.464 144.178, 171.351 144.146, 169.190 142.933 C 167.257 141.848, 166.135 139.842, 164.749 134.991 C 163.506 130.644, 161.914 127.592, 159.931 125.750 C 158.301 124.237, 156.286 123, 155.453 123 C 154.619 123, 153.680 123.670, 153.366 124.488 M 73.500 166.484 C 71.850 167.231, 68.546 169.850, 66.158 172.303 L 61.815 176.764 71.158 184.205 C 76.296 188.298, 83.898 195.439, 88.052 200.073 C 92.205 204.708, 96.985 210.300, 98.674 212.500 C 100.363 214.700, 103.329 219.650, 105.266 223.500 C 108.007 228.949, 110.195 231.636, 115.143 235.628 C 118.640 238.448, 123.075 241.709, 125 242.874 C 126.925 244.039, 129.063 244.994, 129.750 244.996 C 130.438 244.998, 131 244.597, 131 244.104 C 131 243.612, 128.683 241.722, 125.851 239.904 C 123.018 238.087, 121.184 236.439, 121.775 236.242 C 122.366 236.045, 126.002 237.980, 129.856 240.543 C 133.710 243.106, 137.344 244.905, 137.932 244.542 C 138.519 244.179, 139 243.276, 139 242.535 C 139 241.794, 136.706 239.539, 133.902 237.525 C 131.098 235.511, 129.038 233.628, 129.325 233.342 C 129.611 233.055, 132.652 234.726, 136.081 237.055 C 140.843 240.289, 142.693 241.054, 143.909 240.294 C 144.784 239.746, 145.636 238.177, 145.801 236.807 C 146.031 234.904, 145.204 233.647, 142.301 231.486 C 140.211 229.930, 138.313 228.509, 138.083 228.328 C 137.854 228.148, 137.923 227.744, 138.235 227.431 C 138.548 227.118, 141.083 228.500, 143.868 230.501 C 147.411 233.046, 149.769 234.043, 151.716 233.820 C 153.719 233.590, 154.590 232.869, 154.820 231.249 C 155.057 229.576, 153.093 226.862, 147.160 220.667 C 141.576 214.837, 138.806 211.083, 137.931 208.165 C 136.996 205.045, 136.962 203.379, 137.794 201.553 C 138.646 199.682, 140.579 198.614, 146.078 196.977 C 150.123 195.772, 154.315 193.776, 155.692 192.399 C 157.168 190.923, 158.008 189.076, 157.817 187.729 C 157.555 185.886, 156.980 185.565, 154.500 185.875 C 152.850 186.082, 144.975 186.362, 137 186.499 C 129.025 186.635, 119.338 187.085, 115.474 187.499 L 108.447 188.253 105.588 184.126 C 104.015 181.857, 102.446 180, 102.101 180 C 101.756 180, 101.030 181.006, 100.487 182.236 C 99.944 183.466, 98.230 184.914, 96.677 185.455 C 94.446 186.231, 93.099 186.025, 90.254 184.469 C 88.226 183.360, 85.809 180.853, 84.718 178.729 C 83.653 176.655, 82.241 172.830, 81.580 170.229 C 80.699 166.763, 79.860 165.450, 78.439 165.313 C 77.373 165.210, 75.150 165.737, 73.500 166.484 M 765.916 191.522 C 762.845 192.268, 757.789 194.003, 754.680 195.378 C 751.453 196.805, 746.848 200.056, 743.952 202.952 C 741.162 205.743, 737.680 210.608, 736.216 213.763 C 733.788 218.996, 733.552 220.598, 733.527 232 C 733.501 243.976, 733.632 244.779, 736.651 251.151 C 738.384 254.809, 741.628 259.628, 743.860 261.860 C 746.091 264.091, 749.772 266.863, 752.039 268.020 C 754.307 269.177, 759.572 270.995, 763.741 272.062 C 767.909 273.128, 774.090 274, 777.476 274 C 780.862 274, 786.303 273.537, 789.566 272.972 C 792.830 272.407, 798.313 271.215, 801.750 270.324 L 808 268.703 808 245.852 L 808 223 789.500 223 L 771 223 771 232 L 771 241 779.500 241 L 788 241 788 247.611 L 788 254.221 777.250 253.819 C 769.448 253.526, 765.447 252.905, 762.661 251.552 C 760.549 250.526, 757.677 247.957, 756.277 245.843 C 754.391 242.992, 753.609 240.253, 753.255 235.249 C 752.992 231.537, 753.296 226.582, 753.931 224.237 C 754.565 221.892, 756.436 218.434, 758.089 216.552 C 759.918 214.468, 763.024 212.489, 766.031 211.490 C 769.249 210.421, 774.368 209.848, 780.734 209.845 C 786.105 209.843, 792.750 210.343, 795.500 210.957 C 798.250 211.571, 801.304 212.317, 802.286 212.615 C 803.932 213.115, 804.049 212.352, 803.786 202.835 L 803.500 192.512 797 191.303 C 793.425 190.637, 786.225 190.110, 781 190.130 C 775.775 190.150, 768.987 190.777, 765.916 191.522 M 281 232 L 281 273 291 273 L 301 273 301.011 250.250 L 301.023 227.500 308.660 240.782 L 316.296 254.065 326.842 253.782 L 337.387 253.500 344.444 241.284 L 351.500 229.069 351.769 251.034 L 352.038 273 362.519 273 L 373 273 373 232 L 373 191 362.559 191 L 352.119 191 340.119 212.250 C 333.519 223.938, 327.754 234.056, 327.309 234.735 C 326.785 235.535, 322.104 228.069, 314 213.509 L 301.500 191.049 291.250 191.024 L 281 191 281 232 M 400.739 230.218 C 392.119 251.823, 384.779 270.288, 384.427 271.250 C 383.841 272.849, 384.728 273, 394.690 273 L 405.594 273 408.557 264.750 L 411.519 256.500 426.638 256.225 L 441.756 255.949 444.628 264.225 L 447.500 272.500 458.668 272.782 L 469.835 273.064 453.518 232.282 L 437.202 191.500 426.806 191.218 L 416.410 190.936 400.739 230.218 M 481 232 L 481 273 511.500 273 L 542 273 542 263.500 L 542 254 521.500 254 L 501 254 501 222.500 L 501 191 491 191 L 481 191 481 232 M 564.739 230.218 C 556.119 251.823, 548.779 270.288, 548.427 271.250 C 547.841 272.849, 548.728 273, 558.690 273 L 569.594 273 572.557 264.750 L 575.519 256.500 590.614 256.225 L 605.708 255.949 608.665 264.225 L 611.622 272.500 622.729 272.782 L 633.835 273.064 617.518 232.282 L 601.202 191.500 590.806 191.218 L 580.410 190.936 564.739 230.218 M 645 232 L 645 273 654.982 273 L 664.964 273 665.232 249.433 L 665.500 225.867 681.382 249.433 L 697.264 273 707.132 273 L 717 273 717 232 L 717 191 707 191 L 697 191 696.997 214.750 L 696.995 238.500 681.247 214.776 L 665.500 191.051 655.250 191.026 L 645 191 645 232 M 422.376 225.515 C 420.130 231.809, 418.527 237.194, 418.813 237.480 C 419.099 237.766, 422.858 238, 427.167 238 C 431.475 238, 435 237.819, 435 237.597 C 435 237.375, 433.382 232.538, 431.404 226.847 C 429.426 221.156, 427.504 215.953, 427.134 215.285 C 426.763 214.617, 424.622 219.220, 422.376 225.515 M 586.400 225.559 C 584.144 231.833, 582.532 237.198, 582.816 237.483 C 583.101 237.767, 586.858 238, 591.167 238 C 595.475 238, 599 237.756, 599 237.458 C 599 237.161, 597.428 232.402, 595.507 226.883 C 593.586 221.364, 591.674 216.242, 591.257 215.501 C 590.779 214.650, 588.988 218.358, 586.400 225.559" stroke="none" fill="#45385b" fill-rule="evenodd"/><path d="M 0 152.001 L 0 304.002 419.250 303.751 L 838.500 303.500 838.753 151.750 L 839.006 -0 419.503 -0 L 0 0 0 152.001 M 0.487 152.500 C 0.487 236.100, 0.605 270.152, 0.750 228.171 C 0.894 186.191, 0.894 117.791, 0.750 76.171 C 0.605 34.552, 0.487 68.900, 0.487 152.500 M 281 47.951 C 281 58.374, 281.491 69.286, 282.090 72.201 C 282.690 75.115, 284.908 81.100, 287.020 85.500 C 289.409 90.478, 292.680 95.314, 295.680 98.303 C 298.331 100.944, 302.457 104.416, 304.848 106.018 C 307.240 107.619, 311.740 109.861, 314.848 110.999 C 317.957 112.137, 321.063 113.264, 321.750 113.503 C 322.704 113.834, 323 119.742, 323 138.469 L 323 163 339.500 163 L 356 163 356 138.158 L 356 113.317 360.250 112.046 C 362.587 111.347, 366.747 109.637, 369.494 108.247 C 372.241 106.857, 377.467 102.739, 381.109 99.098 C 385.050 95.157, 389.004 89.954, 390.875 86.248 C 392.604 82.823, 394.683 77.203, 395.494 73.760 C 396.524 69.392, 396.975 61.681, 396.985 48.250 L 397 29 380.500 29 L 364 29 363.990 47.750 C 363.981 65.315, 363.832 66.818, 361.633 71.541 C 360.342 74.313, 357.883 77.762, 356.168 79.205 C 354.454 80.648, 351.371 82.382, 349.319 83.060 C 347.266 83.737, 343.092 84.333, 340.043 84.384 C 336.994 84.435, 332.866 84.134, 330.868 83.715 C 328.870 83.296, 325.350 81.587, 323.044 79.917 C 320.331 77.951, 318.001 75.051, 316.436 71.690 C 314.153 66.786, 314.019 65.468, 314.010 47.750 L 314 29 297.500 29 L 281 29 281 47.951 M 420 96 L 420 163 436.486 163 L 452.972 163 453.236 131.965 L 453.500 100.930 470.541 123.715 C 479.914 136.247, 490.264 150.198, 493.541 154.717 L 499.500 162.934 519.250 162.967 C 530.112 162.985, 539 162.655, 539 162.233 C 539 161.811, 531.125 151.021, 521.500 138.255 C 511.875 125.489, 504 114.667, 504 114.206 C 504 113.745, 506.902 111.517, 510.449 109.256 C 514.715 106.536, 518.434 103.057, 521.438 98.977 C 524.099 95.362, 526.811 90.115, 527.989 86.299 C 529.095 82.719, 529.995 77.024, 529.988 73.645 C 529.982 70.265, 529.359 65.183, 528.605 62.350 C 527.851 59.518, 525.982 54.900, 524.452 52.089 C 522.922 49.278, 519.345 44.779, 516.503 42.091 C 513.660 39.403, 509.018 36.029, 506.186 34.594 C 503.355 33.160, 498.217 31.321, 494.769 30.508 C 489.885 29.356, 480.933 29.026, 454.250 29.015 L 420 29 420 96 M 558 96 L 558 163 608 163 L 658 163 658 148 L 658 133 624.500 133 L 591 133 591 81 L 591 29 574.500 29 L 558 29 558 96 M 696.073 92.764 C 682.088 127.819, 670.044 157.963, 669.309 159.750 L 667.973 163 685.874 163 L 703.775 163 708.518 149.500 L 713.262 136 737.931 136 L 762.601 136 767.408 149.500 L 772.216 163 790.215 163 C 804.212 163, 808.104 162.722, 807.719 161.750 C 807.447 161.063, 795.386 130.913, 780.918 94.750 L 754.611 29 738.056 29.014 L 721.500 29.027 696.073 92.764 M 102.342 49.479 C 98.404 50.194, 92.779 51.556, 89.842 52.505 C 86.904 53.455, 81.065 55.928, 76.866 58 C 72.667 60.073, 66.463 63.648, 63.079 65.946 C 59.696 68.244, 54.611 72.181, 51.780 74.695 C 48.949 77.210, 44.658 81.569, 42.245 84.383 C 39.831 87.198, 35.911 92.425, 33.533 96 C 31.156 99.575, 28.521 104.163, 27.679 106.196 L 26.147 109.892 31.824 113.052 C 34.946 114.790, 40.763 118.687, 44.750 121.712 C 48.737 124.737, 52 127.297, 52 127.401 C 52 127.505, 49.716 130.045, 46.924 133.045 C 44.132 136.045, 40.013 141.272, 37.771 144.660 C 35.529 148.048, 33.178 150.622, 32.547 150.380 C 31.916 150.137, 28.497 146.529, 24.950 142.361 L 18.500 134.783 17.666 140.141 C 17.207 143.089, 17.076 150.450, 17.375 156.500 C 17.712 163.325, 18.883 171.295, 20.460 177.500 C 21.858 183, 24.789 191.231, 26.974 195.790 C 29.159 200.350, 32.643 206.650, 34.717 209.790 C 36.791 212.931, 42.054 219.228, 46.414 223.784 C 50.773 228.340, 57.076 234.017, 60.420 236.401 C 63.764 238.784, 70.213 242.599, 74.750 244.878 C 79.288 247.158, 83 248.625, 83 248.139 C 83 247.654, 85.206 243.936, 87.903 239.878 C 90.599 235.820, 94.588 230.485, 96.766 228.023 L 100.727 223.545 102.781 227.523 C 103.911 229.710, 106.785 233.345, 109.167 235.600 C 111.550 237.854, 115.213 240.965, 117.306 242.511 L 121.113 245.323 115.806 250.761 L 110.500 256.198 125.500 255.697 C 136.098 255.343, 142.982 254.571, 148.956 253.064 C 153.608 251.891, 161.571 248.962, 166.654 246.554 C 171.737 244.146, 178.506 240.452, 181.698 238.345 C 184.889 236.237, 191.173 230.998, 195.662 226.703 C 200.151 222.408, 206.055 215.655, 208.782 211.697 C 211.510 207.739, 214.955 202.093, 216.438 199.151 C 217.921 196.208, 218.992 193.696, 218.817 193.567 C 218.643 193.439, 214.450 190.736, 209.500 187.561 C 204.550 184.386, 199.547 180.913, 198.381 179.843 L 196.262 177.898 201.958 172.199 C 205.090 169.064, 209.411 163.850, 211.560 160.611 L 215.467 154.722 221.145 160.992 L 226.823 167.262 227.550 161.447 C 227.950 158.248, 227.991 151.280, 227.643 145.962 C 227.294 140.644, 225.913 131.972, 224.573 126.690 C 223.234 121.409, 220.341 113.254, 218.144 108.567 C 215.948 103.880, 211.831 96.690, 208.996 92.589 C 206.162 88.488, 199.937 81.368, 195.164 76.768 C 190.392 72.167, 182.683 66.062, 178.035 63.201 C 173.387 60.340, 169.115 58.004, 168.542 58.009 C 167.969 58.014, 165.834 60.601, 163.799 63.759 C 161.763 66.916, 157.768 72.112, 154.921 75.304 L 149.744 81.108 148.004 78.247 C 147.047 76.674, 143.842 73.242, 140.882 70.622 C 137.922 68.001, 133.816 64.877, 131.758 63.679 C 129.699 62.480, 128.012 61.200, 128.008 60.834 C 128.003 60.468, 130.716 57.710, 134.037 54.705 C 138.729 50.459, 139.713 49.104, 138.455 48.621 C 137.565 48.279, 130.686 48.041, 123.168 48.090 C 115.651 48.140, 106.279 48.765, 102.342 49.479 M 453 76 L 453 92 470.750 91.998 C 485.673 91.997, 489.046 91.718, 491.929 90.248 C 493.815 89.287, 496.290 87.230, 497.429 85.677 C 499.048 83.470, 499.500 81.356, 499.500 76 C 499.500 70.670, 499.048 68.542, 497.468 66.425 C 496.350 64.928, 493.882 62.870, 491.983 61.851 C 488.995 60.249, 486.146 60, 470.766 60 L 453 60 453 76 M 113.667 64.667 C 113.300 65.033, 113 65.709, 113 66.168 C 113 66.628, 115.269 68.633, 118.042 70.626 C 120.816 72.618, 122.851 74.482, 122.565 74.768 C 122.279 75.054, 119.237 73.443, 115.804 71.187 C 110.001 67.373, 109.438 67.199, 107.782 68.698 C 106.802 69.584, 106 70.936, 106 71.700 C 106 72.465, 107.013 74.096, 108.250 75.325 C 109.487 76.554, 111.598 78.323, 112.940 79.257 C 114.281 80.190, 115.090 81.244, 114.736 81.598 C 114.382 81.952, 112.384 80.902, 110.296 79.265 C 108.208 77.629, 105.471 75.749, 104.212 75.089 C 102.954 74.429, 101.090 74.154, 100.070 74.478 C 99.050 74.801, 97.965 76.026, 97.658 77.199 C 97.223 78.863, 98.713 81.001, 104.429 86.916 C 108.459 91.087, 112.487 95.940, 113.379 97.700 C 114.270 99.461, 115 102.241, 115 103.879 C 115 105.517, 114.361 107.496, 113.580 108.278 C 112.798 109.059, 109 110.714, 105.138 111.956 C 101.277 113.197, 97.484 114.953, 96.711 115.857 C 95.937 116.760, 95.030 118.274, 94.694 119.221 C 94.359 120.168, 94.714 121.571, 95.483 122.340 C 96.680 123.537, 97.643 123.533, 102.190 122.307 C 106.072 121.261, 110.330 121.046, 118.020 121.507 C 124.577 121.901, 131.110 121.691, 135.363 120.950 C 141.757 119.837, 142.368 119.896, 145.053 121.881 C 146.629 123.046, 148.162 124, 148.460 124 C 148.757 124, 149.900 123.100, 151 122 C 152.140 120.860, 154.333 120, 156.100 120 C 158.277 120, 160.188 120.988, 162.520 123.320 C 164.707 125.507, 166.415 128.663, 167.525 132.570 C 168.453 135.831, 169.787 139.107, 170.490 139.848 C 171.558 140.976, 172.483 140.873, 176.134 139.221 C 178.535 138.135, 182.180 135.492, 184.234 133.347 L 187.968 129.449 180.380 123.505 C 176.206 120.236, 169.103 113.497, 164.595 108.531 C 160.088 103.564, 155.017 97.700, 153.329 95.500 C 151.640 93.300, 148.880 88.760, 147.196 85.412 C 145.304 81.649, 141.972 77.347, 138.471 74.148 C 135.356 71.301, 130.839 67.818, 128.432 66.407 C 126.025 64.997, 123.256 64, 122.278 64.192 C 120.969 64.449, 121.818 65.435, 125.500 67.932 C 128.250 69.798, 130.688 71.476, 130.917 71.662 C 131.146 71.848, 131.137 72.196, 130.897 72.436 C 130.658 72.676, 127.359 70.876, 123.567 68.436 C 119.775 65.996, 116.146 64, 115.503 64 C 114.860 64, 114.033 64.300, 113.667 64.667 M 730.805 86.727 C 727.128 97.027, 724.256 105.590, 724.423 105.756 C 724.589 105.922, 730.810 105.933, 738.247 105.779 L 751.769 105.500 745.205 86.750 C 741.595 76.438, 738.382 68, 738.065 68 C 737.748 68, 734.481 76.427, 730.805 86.727 M 97.085 96.503 C 94.800 99.530, 88.927 105.887, 84.034 110.631 C 79.141 115.375, 72.519 121.024, 69.319 123.184 C 66.118 125.345, 60.920 128.440, 57.767 130.062 C 53.750 132.129, 50.360 135.029, 46.439 139.756 C 43.361 143.465, 40.176 147.768, 39.361 149.318 C 38.546 150.867, 38.018 153.085, 38.189 154.245 C 38.440 155.947, 39.241 155.237, 42.323 150.584 C 44.425 147.409, 46.380 145.047, 46.668 145.334 C 46.955 145.621, 45.122 149.053, 42.595 152.959 C 40.068 156.866, 38 160.723, 38 161.531 C 38 162.339, 38.853 163, 39.896 163 C 41.084 163, 43.026 161.077, 45.096 157.851 C 46.913 155.018, 48.562 153.185, 48.759 153.777 C 48.956 154.369, 47.476 157.325, 45.470 160.347 C 43.464 163.368, 41.980 166.664, 42.172 167.670 C 42.373 168.725, 43.569 169.648, 44.996 169.850 C 46.924 170.123, 48.409 169.129, 51.715 165.350 C 54.049 162.683, 55.968 160.981, 55.979 161.569 C 55.991 162.158, 54.200 165.051, 52 168 C 49.800 170.949, 48 173.760, 48 174.246 C 48 174.733, 48.466 176.002, 49.035 177.066 C 49.605 178.130, 50.810 179, 51.713 179 C 52.617 179, 56.827 175.623, 61.069 171.495 C 65.311 167.367, 70.391 163.317, 72.359 162.495 C 74.326 161.673, 77.043 161, 78.396 161 C 79.750 161, 81.515 161.658, 82.320 162.463 C 83.124 163.267, 84.735 167.063, 85.900 170.897 C 87.327 175.596, 88.874 178.542, 90.644 179.934 C 92.088 181.070, 93.862 182, 94.585 182 C 95.309 182, 96.298 181.290, 96.784 180.422 C 97.328 179.449, 97.140 176.861, 96.294 173.672 C 95.311 169.968, 95.103 165.520, 95.562 158 C 95.959 151.490, 95.762 145.098, 95.044 141.179 C 93.985 135.399, 94.062 134.560, 95.943 131.372 C 97.074 129.454, 98 127.686, 98 127.443 C 98 127.199, 97.170 127, 96.155 127 C 95.140 127, 93.565 126.177, 92.655 125.171 C 91.745 124.165, 91 121.725, 91 119.748 C 91 117.070, 91.782 115.372, 94.069 113.085 C 95.985 111.168, 99.272 109.424, 102.819 108.439 C 105.944 107.572, 109.120 106.661, 109.878 106.414 C 110.868 106.091, 111.089 104.936, 110.663 102.310 C 110.282 99.965, 108.731 97.285, 106.332 94.828 C 104.276 92.723, 102.289 91, 101.917 91 C 101.545 91, 99.371 93.476, 97.085 96.503 M 153.366 124.488 C 153.052 125.307, 153.353 128.301, 154.034 131.143 C 154.859 134.581, 155.051 139.481, 154.607 145.795 C 154.196 151.632, 154.400 158.286, 155.135 163.092 C 156.317 170.812, 156.301 170.945, 153.677 174.701 C 152.218 176.790, 150.327 179.454, 149.476 180.621 C 147.943 182.721, 147.966 182.731, 151.865 181.691 C 155.109 180.825, 156.255 180.937, 158.385 182.333 C 159.806 183.264, 161.261 185.192, 161.619 186.618 C 162.012 188.182, 161.647 190.517, 160.701 192.502 C 159.575 194.861, 157.574 196.530, 153.628 198.396 C 150.601 199.828, 147.282 201, 146.253 201 C 145.224 201, 143.562 201.600, 142.559 202.333 C 140.969 203.496, 140.884 204.118, 141.897 207.186 C 142.535 209.122, 144.117 211.701, 145.412 212.917 L 147.766 215.129 153.753 207.802 C 157.046 203.773, 163.314 197.106, 167.684 192.988 C 172.053 188.870, 178.802 183.374, 182.681 180.776 C 186.560 178.178, 191.031 175.563, 192.617 174.966 C 194.203 174.369, 197.230 172.220, 199.344 170.190 C 201.458 168.161, 205.101 163.800, 207.440 160.500 C 209.778 157.200, 211.987 153.672, 212.349 152.660 C 212.711 151.648, 212.729 150.370, 212.389 149.820 C 212.049 149.271, 210.024 151.449, 207.889 154.660 C 205.753 157.872, 204.006 159.825, 204.006 159 C 204.006 158.175, 205.804 154.800, 208 151.500 C 210.196 148.200, 211.995 144.713, 211.997 143.750 C 211.999 142.742, 211.258 142.008, 210.250 142.018 C 209.261 142.028, 207.057 144.243, 205.179 147.114 C 203.352 149.906, 201.603 151.937, 201.292 151.625 C 200.981 151.314, 202.642 148.120, 204.983 144.526 C 208.495 139.136, 209.022 137.731, 207.997 136.497 C 207.314 135.673, 205.706 135, 204.423 135 C 202.838 135, 201 136.430, 198.680 139.468 C 196.804 141.925, 195.007 143.674, 194.687 143.354 C 194.367 143.034, 195.882 140.368, 198.053 137.429 C 200.224 134.490, 202 131.256, 202 130.243 C 202 129.229, 201.460 127.860, 200.800 127.200 C 200.140 126.540, 198.950 126, 198.156 126 C 197.362 126, 192.995 129.569, 188.451 133.931 C 182.633 139.517, 178.946 142.236, 175.982 143.123 C 172.464 144.178, 171.351 144.146, 169.190 142.933 C 167.257 141.848, 166.135 139.842, 164.749 134.991 C 163.506 130.644, 161.914 127.592, 159.931 125.750 C 158.301 124.237, 156.286 123, 155.453 123 C 154.619 123, 153.680 123.670, 153.366 124.488 M 73.500 166.484 C 71.850 167.231, 68.546 169.850, 66.158 172.303 L 61.815 176.764 71.158 184.205 C 76.296 188.298, 83.898 195.439, 88.052 200.073 C 92.205 204.708, 96.985 210.300, 98.674 212.500 C 100.363 214.700, 103.329 219.650, 105.266 223.500 C 108.007 228.949, 110.195 231.636, 115.143 235.628 C 118.640 238.448, 123.075 241.709, 125 242.874 C 126.925 244.039, 129.063 244.994, 129.750 244.996 C 130.438 244.998, 131 244.597, 131 244.104 C 131 243.612, 128.683 241.722, 125.851 239.904 C 123.018 238.087, 121.184 236.439, 121.775 236.242 C 122.366 236.045, 126.002 237.980, 129.856 240.543 C 133.710 243.106, 137.344 244.905, 137.932 244.542 C 138.519 244.179, 139 243.276, 139 242.535 C 139 241.794, 136.706 239.539, 133.902 237.525 C 131.098 235.511, 129.038 233.628, 129.325 233.342 C 129.611 233.055, 132.652 234.726, 136.081 237.055 C 140.843 240.289, 142.693 241.054, 143.909 240.294 C 144.784 239.746, 145.636 238.177, 145.801 236.807 C 146.031 234.904, 145.204 233.647, 142.301 231.486 C 140.211 229.930, 138.313 228.509, 138.083 228.328 C 137.854 228.148, 137.923 227.744, 138.235 227.431 C 138.548 227.118, 141.083 228.500, 143.868 230.501 C 147.411 233.046, 149.769 234.043, 151.716 233.820 C 153.719 233.590, 154.590 232.869, 154.820 231.249 C 155.057 229.576, 153.093 226.862, 147.160 220.667 C 141.576 214.837, 138.806 211.083, 137.931 208.165 C 136.996 205.045, 136.962 203.379, 137.794 201.553 C 138.646 199.682, 140.579 198.614, 146.078 196.977 C 150.123 195.772, 154.315 193.776, 155.692 192.399 C 157.168 190.923, 158.008 189.076, 157.817 187.729 C 157.555 185.886, 156.980 185.565, 154.500 185.875 C 152.850 186.082, 144.975 186.362, 137 186.499 C 129.025 186.635, 119.338 187.085, 115.474 187.499 L 108.447 188.253 105.588 184.126 C 104.015 181.857, 102.446 180, 102.101 180 C 101.756 180, 101.030 181.006, 100.487 182.236 C 99.944 183.466, 98.230 184.914, 96.677 185.455 C 94.446 186.231, 93.099 186.025, 90.254 184.469 C 88.226 183.360, 85.809 180.853, 84.718 178.729 C 83.653 176.655, 82.241 172.830, 81.580 170.229 C 80.699 166.763, 79.860 165.450, 78.439 165.313 C 77.373 165.210, 75.150 165.737, 73.500 166.484 M 765.916 191.522 C 762.845 192.268, 757.789 194.003, 754.680 195.378 C 751.453 196.805, 746.848 200.056, 743.952 202.952 C 741.162 205.743, 737.680 210.608, 736.216 213.763 C 733.788 218.996, 733.552 220.598, 733.527 232 C 733.501 243.976, 733.632 244.779, 736.651 251.151 C 738.384 254.809, 741.628 259.628, 743.860 261.860 C 746.091 264.091, 749.772 266.863, 752.039 268.020 C 754.307 269.177, 759.572 270.995, 763.741 272.062 C 767.909 273.128, 774.090 274, 777.476 274 C 780.862 274, 786.303 273.537, 789.566 272.972 C 792.830 272.407, 798.313 271.215, 801.750 270.324 L 808 268.703 808 245.852 L 808 223 789.500 223 L 771 223 771 232 L 771 241 779.500 241 L 788 241 788 247.611 L 788 254.221 777.250 253.819 C 769.448 253.526, 765.447 252.905, 762.661 251.552 C 760.549 250.526, 757.677 247.957, 756.277 245.843 C 754.391 242.992, 753.609 240.253, 753.255 235.249 C 752.992 231.537, 753.296 226.582, 753.931 224.237 C 754.565 221.892, 756.436 218.434, 758.089 216.552 C 759.918 214.468, 763.024 212.489, 766.031 211.490 C 769.249 210.421, 774.368 209.848, 780.734 209.845 C 786.105 209.843, 792.750 210.343, 795.500 210.957 C 798.250 211.571, 801.304 212.317, 802.286 212.615 C 803.932 213.115, 804.049 212.352, 803.786 202.835 L 803.500 192.512 797 191.303 C 793.425 190.637, 786.225 190.110, 781 190.130 C 775.775 190.150, 768.987 190.777, 765.916 191.522 M 281 232 L 281 273 291 273 L 301 273 301.011 250.250 L 301.023 227.500 308.660 240.782 L 316.296 254.065 326.842 253.782 L 337.387 253.500 344.444 241.284 L 351.500 229.069 351.769 251.034 L 352.038 273 362.519 273 L 373 273 373 232 L 373 191 362.559 191 L 352.119 191 340.119 212.250 C 333.519 223.938, 327.754 234.056, 327.309 234.735 C 326.785 235.535, 322.104 228.069, 314 213.509 L 301.500 191.049 291.250 191.024 L 281 191 281 232 M 400.739 230.218 C 392.119 251.823, 384.779 270.288, 384.427 271.250 C 383.841 272.849, 384.728 273, 394.690 273 L 405.594 273 408.557 264.750 L 411.519 256.500 426.638 256.225 L 441.756 255.949 444.628 264.225 L 447.500 272.500 458.668 272.782 L 469.835 273.064 453.518 232.282 L 437.202 191.500 426.806 191.218 L 416.410 190.936 400.739 230.218 M 481 232 L 481 273 511.500 273 L 542 273 542 263.500 L 542 254 521.500 254 L 501 254 501 222.500 L 501 191 491 191 L 481 191 481 232 M 564.739 230.218 C 556.119 251.823, 548.779 270.288, 548.427 271.250 C 547.841 272.849, 548.728 273, 558.690 273 L 569.594 273 572.557 264.750 L 575.519 256.500 590.614 256.225 L 605.708 255.949 608.665 264.225 L 611.622 272.500 622.729 272.782 L 633.835 273.064 617.518 232.282 L 601.202 191.500 590.806 191.218 L 580.410 190.936 564.739 230.218 M 645 232 L 645 273 654.982 273 L 664.964 273 665.232 249.433 L 665.500 225.867 681.382 249.433 L 697.264 273 707.132 273 L 717 273 717 232 L 717 191 707 191 L 697 191 696.997 214.750 L 696.995 238.500 681.247 214.776 L 665.500 191.051 655.250 191.026 L 645 191 645 232 M 422.376 225.515 C 420.130 231.809, 418.527 237.194, 418.813 237.480 C 419.099 237.766, 422.858 238, 427.167 238 C 431.475 238, 435 237.819, 435 237.597 C 435 237.375, 433.382 232.538, 431.404 226.847 C 429.426 221.156, 427.504 215.953, 427.134 215.285 C 426.763 214.617, 424.622 219.220, 422.376 225.515 M 586.400 225.559 C 584.144 231.833, 582.532 237.198, 582.816 237.483 C 583.101 237.767, 586.858 238, 591.167 238 C 595.475 238, 599 237.756, 599 237.458 C 599 237.161, 597.428 232.402, 595.507 226.883 C 593.586 221.364, 591.674 216.242, 591.257 215.501 C 590.779 214.650, 588.988 218.358, 586.400 225.559" stroke="none" fill="#fafafa" fill-rule="evenodd"/></svg>