<svg xmlns="http://www.w3.org/2000/svg" width="830" height="301" viewBox="0 0 830 301" version="1.1"><path d="M 104.835 47.473 C 78.084 51.858, 53.408 66.642, 37.531 87.797 C 32.072 95.071, 25 106.605, 25 108.235 C 25 108.486, 28.712 110.960, 33.250 113.735 C 37.788 116.509, 43.518 120.571, 45.984 122.761 C 50.469 126.744, 50.469 126.744, 44.257 133.384 C 40.841 137.036, 37.023 141.815, 35.773 144.004 C 34.523 146.194, 33.191 147.988, 32.814 147.992 C 32.437 147.997, 29.078 144.632, 25.349 140.515 C 20.763 135.451, 18.242 133.358, 17.555 134.045 C 15.758 135.842, 16.308 162.486, 18.339 172 C 23.657 196.917, 40.252 221.681, 61 235.666 C 69.900 241.665, 80.730 247.285, 81.944 246.534 C 82.420 246.240, 84.173 243.583, 85.840 240.629 C 89.044 234.953, 98.539 223, 99.844 223 C 100.268 223, 101.401 224.781, 102.361 226.957 C 103.478 229.488, 106.814 233.180, 111.624 237.207 C 119.141 243.500, 119.141 243.500, 113.848 248.195 C 110.938 250.777, 108.795 253.128, 109.087 253.420 C 110.402 254.735, 124.366 255.139, 132.250 254.090 C 145.528 252.323, 155.518 249.446, 166.456 244.239 C 187.266 234.333, 202.693 219.625, 213.829 199.076 C 217.852 191.653, 217.852 191.653, 210.176 186.897 C 205.954 184.281, 200.933 180.816, 199.018 179.196 C 195.537 176.250, 195.537 176.250, 201.713 169.648 C 205.110 166.016, 209.119 160.947, 210.622 158.382 C 213.354 153.719, 213.354 153.719, 215.288 156.110 C 221.487 163.771, 224.240 166.231, 225.097 164.877 C 226.524 162.624, 226.118 140.841, 224.488 132.250 C 220.241 109.861, 209.131 89.725, 192.409 74.109 C 184.804 67.007, 169.849 57, 166.840 57 C 165.922 57, 163.851 59.138, 162.237 61.750 C 160.622 64.362, 156.978 69.273, 154.138 72.662 C 148.974 78.824, 148.974 78.824, 143.267 72.841 C 140.128 69.550, 135.409 65.464, 132.780 63.760 C 130.151 62.057, 127.988 60.401, 127.972 60.082 C 127.957 59.762, 130.545 57.164, 133.722 54.309 C 137.763 50.679, 139.185 48.801, 138.452 48.062 C 136.687 46.281, 114.481 45.892, 104.835 47.473 M 113 65.408 C 113 66.183, 115.024 68.095, 117.498 69.658 C 121.640 72.275, 123.419 75, 120.985 75 C 120.426 75, 117.516 73.371, 114.518 71.380 C 111.406 69.314, 108.408 68.013, 107.533 68.349 C 104.800 69.398, 105.884 72.813, 110 76.120 C 112.200 77.888, 114 79.934, 114 80.667 C 114 82.616, 113.267 82.362, 108.134 78.638 C 105.585 76.789, 102.825 75.050, 102 74.773 C 100.135 74.148, 97 75.678, 97 77.213 C 97 77.842, 100.303 81.764, 104.339 85.928 C 113.163 95.032, 116.303 101.584, 113.900 105.877 C 112.829 107.790, 110.481 109.177, 105.229 111 C 97.268 113.763, 93.345 116.851, 94.378 119.542 C 94.931 120.985, 95.691 121.114, 99.267 120.375 C 101.595 119.894, 108.900 119.617, 115.500 119.760 C 122.100 119.902, 130.526 119.526, 134.225 118.923 C 140.470 117.906, 141.165 117.981, 143.978 119.984 C 147.006 122.140, 147.006 122.140, 149.638 120.070 C 156.037 115.037, 163.561 119.853, 166.649 130.961 C 167.605 134.399, 168.976 137.437, 169.696 137.713 C 172.255 138.695, 176.276 136.849, 180.715 132.655 C 185.218 128.401, 185.218 128.401, 178.359 122.830 C 170.092 116.115, 168.341 114.451, 160.097 105.473 C 153.539 98.331, 144 84.722, 144 82.507 C 144 81.826, 143.085 80.106, 141.966 78.684 C 139.095 75.034, 124.218 63.998, 122.188 64.012 C 121.249 64.018, 122.608 65.402, 125.250 67.130 C 127.862 68.839, 130 70.858, 130 71.618 C 130 73.567, 129.845 73.506, 122.106 68.500 C 114.728 63.727, 113 63.140, 113 65.408 M 96.223 96.197 C 89.901 104.111, 74.936 118.676, 69 122.691 C 66.525 124.365, 61.751 127.119, 58.390 128.811 C 52.385 131.834, 48.411 135.775, 41.154 145.900 C 39.419 148.320, 38 151.014, 38 151.887 C 38 152.759, 39.587 151.117, 41.527 148.237 C 44.945 143.161, 47 141.668, 47 144.261 C 47 144.954, 44.957 148.567, 42.459 152.290 C 38.350 158.415, 37.607 161, 39.955 161 C 40.415 161, 42.235 158.750, 44 156 C 45.765 153.250, 47.585 151, 48.045 151 C 50.171 151, 49.592 153.091, 45.950 158.568 C 41.404 165.406, 41.172 166.602, 44.207 167.566 C 46.003 168.136, 47.167 167.402, 50.457 163.625 C 56.888 156.242, 58.332 158.015, 52.500 166.133 C 48.752 171.350, 48.004 175.404, 50.605 176.402 C 51.711 176.826, 54.590 174.719, 59.855 169.631 C 68.423 161.350, 72.298 159, 77.378 159 C 81.619 159, 84.523 162.220, 85.501 168.006 C 86.459 173.675, 89.939 178.428, 93.426 178.830 C 96.262 179.158, 96.280 179.126, 95.405 175.330 C 94.920 173.224, 94.514 165.650, 94.503 158.500 C 94.492 151.350, 94.097 142.463, 93.625 138.752 C 92.922 133.222, 93.056 131.563, 94.366 129.564 C 95.870 127.268, 95.846 127.086, 93.956 126.486 C 90.763 125.473, 88.659 121.454, 89.395 117.774 C 90.402 112.739, 94.607 109.177, 102.303 106.839 C 106.072 105.695, 109.377 104.181, 109.648 103.476 C 110.308 101.756, 106.790 95.055, 103.726 92.197 C 101.257 89.893, 101.257 89.893, 96.223 96.197 M 152.609 126.170 C 153.099 128.001, 153.540 135.350, 153.588 142.500 C 153.637 149.650, 154.020 158.875, 154.440 163 C 155.204 170.498, 155.203 170.501, 151.747 175 C 148.289 179.500, 148.289 179.500, 152.551 179.157 C 157.906 178.725, 161 181.365, 161 186.365 C 161 192.485, 154.508 197.688, 144.541 199.558 C 141.547 200.120, 141.001 200.631, 141.004 202.861 C 141.008 205.628, 144.363 212, 145.816 212 C 146.281 212, 148.180 209.885, 150.036 207.300 C 154.574 200.982, 170.086 185.884, 177.500 180.570 C 180.800 178.205, 186.261 174.879, 189.634 173.179 C 193.086 171.440, 197.355 168.235, 199.396 165.851 C 205.065 159.228, 210.261 151.284, 209.811 149.932 C 209.585 149.255, 207.897 151.045, 206.058 153.909 C 203.773 157.470, 202.392 158.792, 201.690 158.090 C 200.989 157.389, 202.151 154.828, 205.366 149.992 C 209.681 143.504, 210.400 141, 207.949 141 C 207.435 141, 205.549 143.242, 203.758 145.982 C 201.966 148.722, 200.162 150.972, 199.750 150.982 C 198.064 151.022, 199.207 147.658, 202.633 142.497 C 205.643 137.963, 206.051 136.766, 205.011 135.513 C 202.988 133.075, 201.334 133.719, 197.338 138.500 C 195.269 140.975, 193.222 143, 192.788 143 C 191.173 143, 192.112 140.744, 196.049 135.161 C 198.592 131.555, 199.865 128.812, 199.472 127.787 C 198.067 124.125, 195.814 125.056, 187.949 132.549 C 179.782 140.329, 175.221 143, 170.105 143 C 166.414 143, 163.422 139.457, 162.499 133.994 C 161.542 128.327, 158.061 123.572, 154.577 123.170 C 151.791 122.848, 151.741 122.925, 152.609 126.170 M 74 165.115 C 71.540 166.088, 63 173.806, 63 175.057 C 63 175.409, 66.713 178.609, 71.250 182.167 C 83.891 192.081, 98.307 208.658, 103.820 219.620 C 107.127 226.197, 115.917 235.003, 123.764 239.602 C 129.643 243.047, 130.305 242.008, 124.548 238.371 C 120.396 235.748, 118.568 233, 120.975 233 C 121.512 233, 124.999 234.980, 128.725 237.400 C 135.038 241.500, 137 242.125, 137 240.035 C 137 239.569, 134.697 237.533, 131.883 235.511 C 128.415 233.020, 127.093 231.507, 127.782 230.818 C 128.471 230.129, 130.816 231.142, 135.056 233.958 C 140.514 237.584, 141.499 237.930, 142.760 236.669 C 144.874 234.554, 143.522 231.634, 138.969 228.478 C 136.786 226.966, 135 225.339, 135 224.864 C 135 223.153, 137.575 224.064, 142.678 227.578 C 148.239 231.408, 152.226 231.831, 152.831 228.655 C 153.066 227.427, 150.795 224.455, 146.041 219.767 C 138.377 212.208, 135 206.824, 135 202.162 C 135 198.327, 136.774 196.998, 145.895 194 C 152.068 191.971, 153.754 190.964, 154.852 188.652 C 156.834 184.475, 155.244 183.392, 149.493 185.002 C 146.291 185.898, 141.602 186.106, 134.188 185.679 C 127.804 185.311, 121.043 185.512, 117.398 186.177 C 109.628 187.596, 107.069 186.894, 104.132 182.541 C 101.763 179.031, 101.763 179.031, 99.856 181.456 C 93.870 189.066, 84.388 183.331, 80.503 169.750 C 78.808 163.826, 78.256 163.432, 74 165.115" stroke="none" fill="#b01413" fill-rule="evenodd"/><path d="M 277.324 29.598 C 276.101 32.785, 277.854 68.302, 279.541 74.500 C 284.201 91.629, 296.682 105.165, 313.162 110.966 C 318.500 112.845, 318.500 112.845, 319 137.672 C 319.500 162.500, 319.500 162.500, 336 162.500 C 352.500 162.500, 352.500 162.500, 353 137.644 C 353.500 112.789, 353.500 112.789, 359.874 110.393 C 373.872 105.133, 384.976 93.957, 390.688 79.377 C 393.269 72.792, 393.400 71.556, 393.788 50.250 C 394.193 28, 394.193 28, 377.187 28 C 360.181 28, 360.181 28, 359.840 47.750 C 359.503 67.309, 359.473 67.546, 356.695 72.272 C 355.152 74.897, 352.035 78.272, 349.769 79.772 C 345.998 82.269, 344.833 82.500, 336 82.500 C 327.019 82.500, 326.015 82.292, 321.480 79.491 C 318.021 77.354, 315.869 75.045, 314.055 71.523 C 311.618 66.793, 311.485 65.673, 311.174 47.282 C 310.847 28, 310.847 28, 294.392 28 C 280.239 28, 277.851 28.224, 277.324 29.598 M 416 95.500 C 416 163, 416 163, 432.393 163 C 446.419 163, 448.874 162.772, 449.393 161.418 C 449.727 160.548, 450.015 146.936, 450.033 131.168 C 450.067 102.500, 450.067 102.500, 452.153 105 C 453.301 106.375, 463.461 119.987, 474.731 135.250 C 495.222 163, 495.222 163, 515.111 163 C 530.414 163, 535 162.710, 535 161.743 C 535 161.052, 527.125 150.007, 517.500 137.199 C 507.875 124.391, 500 113.524, 500 113.051 C 500 112.577, 501.919 111.066, 504.264 109.691 C 514.405 103.748, 522.730 91.521, 524.942 79.323 C 528.963 57.144, 511.948 33.247, 489.114 29.002 C 486.151 28.451, 468.488 28, 449.864 28 C 416 28, 416 28, 416 95.500 M 552.469 29.226 C 552.201 29.927, 552.098 60.200, 552.241 96.500 C 552.500 162.500, 552.500 162.500, 602.500 162.500 C 652.500 162.500, 652.500 162.500, 652.500 147 C 652.500 131.500, 652.500 131.500, 619.759 131.236 C 587.018 130.973, 587.018 130.973, 586.759 79.736 C 586.500 28.500, 586.500 28.500, 569.728 28.226 C 556.858 28.015, 552.843 28.248, 552.469 29.226 M 687.605 94.601 C 671.225 135.303, 661.161 161.561, 661.726 162.126 C 662.241 162.641, 670.344 162.928, 680.064 162.774 C 697.480 162.500, 697.480 162.500, 702.113 149.500 C 706.747 136.500, 706.747 136.500, 730.784 136.232 C 758.072 135.929, 753.964 133.598, 761.219 153.500 C 764.500 162.500, 764.500 162.500, 781.926 162.774 C 792.164 162.936, 799.749 162.651, 800.315 162.085 C 800.933 161.467, 791.678 137.254, 774.506 94.561 C 747.733 28, 747.733 28, 731.071 28 C 714.408 28, 714.408 28, 687.605 94.601 M 450 75.599 C 450 91.198, 450 91.198, 467.250 90.845 C 486.312 90.455, 488.971 89.705, 492.507 83.718 C 494.800 79.838, 494.834 71.514, 492.577 67.148 C 489.541 61.278, 484.994 60.047, 466.250 60.022 C 450 60, 450 60, 450 75.599 M 724.519 85.250 C 721.325 94.188, 718.504 102.063, 718.249 102.750 C 717.894 103.708, 720.727 104, 730.393 104 C 737.519 104, 743 103.595, 743 103.068 C 743 101.103, 731.741 69, 731.052 69 C 730.653 69, 727.713 76.313, 724.519 85.250 M 277.457 189.252 C 277.193 189.940, 277.094 208.503, 277.238 230.502 C 277.500 270.500, 277.500 270.500, 288 270.500 C 298.500 270.500, 298.500 270.500, 299 249.534 C 299.500 228.568, 299.500 228.568, 306.500 240.783 C 313.500 252.998, 313.500 252.998, 323.634 252.999 C 333.768 253, 333.768 253, 340.634 241.051 C 347.500 229.102, 347.500 229.102, 348 249.801 C 348.500 270.500, 348.500 270.500, 359 270.500 C 369.500 270.500, 369.500 270.500, 369.761 229.250 C 370.022 188, 370.022 188, 359.254 188 C 348.485 188, 348.485 188, 336.136 210 C 329.344 222.100, 323.651 232, 323.486 232 C 323.321 232, 317.632 222.114, 310.843 210.032 C 298.500 188.064, 298.500 188.064, 288.219 188.032 C 280.884 188.009, 277.800 188.359, 277.457 189.252 M 396.203 228.218 C 387.277 250.373, 379.979 269.077, 379.987 269.783 C 379.997 270.766, 382.611 271, 391.191 270.783 C 402.381 270.500, 402.381 270.500, 404.902 262.725 C 407.423 254.950, 407.423 254.950, 422.337 255.225 C 437.252 255.500, 437.252 255.500, 439.999 263 C 442.746 270.500, 442.746 270.500, 453.538 270.786 C 459.473 270.943, 464.670 270.718, 465.087 270.286 C 465.503 269.853, 458.486 251.275, 449.494 229 C 433.143 188.500, 433.143 188.500, 422.788 188.218 C 412.433 187.937, 412.433 187.937, 396.203 228.218 M 475.470 189.216 C 475.199 189.924, 475.094 208.503, 475.238 230.502 C 475.500 270.500, 475.500 270.500, 506.250 270.764 C 537 271.029, 537 271.029, 537 261.014 C 537 251, 537 251, 517.014 251 C 497.028 251, 497.028 251, 496.764 219.750 C 496.500 188.500, 496.500 188.500, 486.232 188.215 C 478.571 188.002, 475.839 188.256, 475.470 189.216 M 558.250 228.768 C 549.313 251.177, 542 269.846, 542 270.255 C 542 270.665, 547.125 271, 553.388 271 C 564.776 271, 564.776 271, 567.561 263 C 570.346 255, 570.346 255, 585.099 255 C 599.851 255, 599.851 255, 602.675 262.997 C 605.500 270.995, 605.500 270.995, 616.750 270.997 C 622.938 270.999, 628 270.698, 628 270.330 C 628 269.961, 620.720 251.286, 611.823 228.830 C 595.647 188, 595.647 188, 585.073 188.013 C 574.500 188.026, 574.500 188.026, 558.250 228.768 M 638 229.500 C 638 271, 638 271, 648.500 271 C 659 271, 659 271, 659 247.753 C 659 224.507, 659 224.507, 674.506 247.753 C 690.013 271, 690.013 271, 700.506 271 C 711 271, 711 271, 711 229.500 C 711 188, 711 188, 700.519 188 C 690.038 188, 690.038 188, 689.769 210.750 C 689.500 233.500, 689.500 233.500, 674.221 210.750 C 658.943 188, 658.943 188, 648.471 188 C 638 188, 638 188, 638 229.500 M 757 189.608 C 743.575 193.212, 734.053 200.391, 729.403 210.414 C 719.975 230.734, 727.528 257.442, 745.308 266.656 C 750.390 269.290, 763.191 272, 770.549 272 C 778.411 272, 792.509 269.650, 797.728 267.469 C 801 266.102, 801 266.102, 801 243.029 C 801 219.957, 801 219.957, 781.750 220.228 C 762.500 220.500, 762.500 220.500, 762.208 228.847 C 762.023 234.141, 762.342 237.707, 763.080 238.597 C 763.899 239.584, 766.582 240, 772.122 240 C 780 240, 780 240, 780 245.500 C 780 251, 780 251, 772.750 250.956 C 768.763 250.932, 763.539 250.534, 761.142 250.071 C 749.903 247.900, 744.166 237.153, 746.987 223.561 C 749.432 211.785, 758.216 207.309, 776.959 208.286 C 782.757 208.589, 789.609 209.495, 792.188 210.301 C 796.305 211.588, 796.944 211.589, 797.438 210.302 C 798.261 208.157, 798.095 192.698, 797.235 191.347 C 795.144 188.065, 767.239 186.859, 757 189.608 M 418.957 222.738 C 417.056 228.049, 415.350 232.755, 415.167 233.197 C 414.983 233.639, 418.216 234, 422.350 234 C 429.868 234, 429.868 234, 426.449 223.848 C 424.569 218.265, 422.892 213.558, 422.723 213.389 C 422.553 213.220, 420.859 217.427, 418.957 222.738 M 581.822 222.750 C 580.349 227.013, 578.838 231.287, 578.465 232.250 C 577.857 233.816, 578.533 234, 584.893 234 C 588.802 234, 592 233.753, 592 233.450 C 592 231.989, 585.669 215, 585.125 215 C 584.781 215.001, 583.295 218.488, 581.822 222.750" stroke="none" fill="#1d4375" fill-rule="evenodd"/></svg>